<svg xmlns="http://www.w3.org/2000/svg" viewBox="0 0 250 190" fill="currentColor"><path d="M55.6 35.6c2.6-3.2 7.1-5.7 11.4-4.4 5.1.24 9.3 3.4 12.7 7 1.5 4.4.93 9.3.24 13.9-.71 3.5-1.7 8.5-6.3 8.7 1.4.75 2.9 1.3 4.2 2.3-1.6-.06-5.0-.17-6.7-.22l3.2-1.3c-3.2-1.4-5.7.93-8.7 1.7.43-.93.8-1.8 1.3-2.7 1.7-.17 3.4-.33 5.1-.46-1.0-.72-2.0-1.4-3.0-2.1-1.2-1.2-2.5-2.5-3.5-4.0 2.9 1.2 5.2 3.7 8.4 4.4 1.7-.19 2.4-1.9 3.0-3.3 2.3-5.0 2.2-11.1-.02-16.1-2.9-4.1-8.4-5.9-13.3-6.1-3.1 1.0-6.6 2.7-7.7 6.1-2.2 5.1.24 10.6.28 16-.81 2.6-3 4.5-4.9 6.4-.95.8-1.8 2.2-3.3 1.6l-.44-.41c1.8-2.7 4.8-4.5 6.0-7.7 1.4-6.3-1.7-13.4 1.9-19.3z"/><path d="M58.5 56.5c.39.0 1.1.26 1.5.34-.43 1.6-.82 3.2-1.1 4.9 2.0 1.3 3.7 3.5 3.5 6.0-2.0-1.6-3.3-4.0-5.9-5.1-.03-2.2.79-4.3 1.9-6.2z"/><path d="M77.2 63.8c.72-.54 1.4-1.0 2.1-1.6 2.1 1.2 4.0 2.7 5.9 4.3 7.3-1.0 14.2 2.3 19.8 6.8 3.1-.78 6.5-1.5 9.7-.34 7.6 2.0 13.9 7.7 22.1 8.2 2.6.92 4.7-1.1 6.7-2.4 1.6-1.2 3.7-.46 5.5-.4 8.4-2.3 17.1 5.6 16.2 14.2 28.1 3.7 56.2 6.9 84.3 10.6v1.7l-.01.9c-11.7-1-23.3-3.1-35.1-3.5 1.2-.23 2.5-.46 3.8-.7-2.5-.1-5.1-.18-7.7-.32-15.5-2.8-31.4-3.9-47.1-6.2-.28-2.9-.25-6-1.5-8.6-1.6-2.6-4.6-3.8-7.6-4.5-1.1 1.3-2.3 2.6-3.4 3.9 2.1-.23 4.3-.51 6.4-.9 1.5 1.2 3.4 2.3 4.0 4.3 1.3 3.2-.56 6.6-1.1 9.8.49.3.99.7 1.4 1.1.6-1.6 1.2-3.2 1.8-4.8l1.5.6c-.23 1.2-.46 2.4-.68 3.6-4.2 3.2-8.7 7.5-14.5 6.8-3.1-.13-4.0-3.5-6.0-5.3-2.7-2.1-6.3-1.1-9.5-1.4-6.4-.87-12.8 1.3-19.3.49-5.2.14-9.9-2.5-15.1-2.5-2.0-.09-4.0-.59-6.0-1.1-3.5.9-7.2 2-10.8 1.0-.54 2.3-1.3 4.6-2.1 6.9.21 2.2.18 4.5-.18 6.8 2.2.31 4.4.87 6.7 1.1-.75.5-1.5 1.0-2.2 1.6 3.9-.21 7.9-.86 11.7-2.0 1.4-.76 2.7.64 3.9 1.1 5.3-.73 10.7-.12 16.0-.33 4.2-.62 8.6-1.6 12.9-.25 3.7.5 5.9 3.8 8.5 6.1 4.9 4.4 10.9 7.3 15.6 12.1 2.1 2.1 4.5 3.9 6.9 5.8 2.4 2.2 5.9 1.0 8.6-.06 4.2-3.3 7.6-8.1 13.2-9.2 2.8-.51 4.2 2.4 5.5 4.4-2 5.2-5.4 9.6-9.5 13.4 2.7-1.5 6.0-2.8 7.2-6.0 1.1-2.9 3.8-4.8 6.8-5.7 2.2 2.7 4.2 5.9 4 9.5.16 4.7-3.9 7.9-6.3 11.5-4.1 4.7-4.2 12.7-10.6 15.4-3.9.85-7.3-2.0-10.5-3.9 3.8 2.9 6.9 6.7 10.4 10.0 1.4 1.4 3.7.48 5.5.67 5.8-10.0 11.6-20.2 18.6-29.5 2.6-3.1 3.0-7.3 2.6-11.2 1.2 1.4 4.0 2.6 3.2 5.0-2.0 7.9-8.0 13.9-12.0 20.8-2.9 5.5-6.9 10.4-9.8 16.0-3.1 1.0-6.9 2.3-9.8.03-5.6-4.3-10.6-9.5-14.6-15.3-2.7-4.1-8.0-4.8-12.2-7.0-7.3-3.6-15.8-6.4-20.7-13.6-.29.3-.57.6-.84 1.0 1.2 4.3 2.0 9.0 1.2 13.5-1.4 3.5-5.5 4.8-9.1 4.7-22 .09-44.0.23-66.0.45-4.6.89-9.4.36-13.5-2.1-1.7-3.4-3.3-7.4-2.0-11.3 1.1-3.7 1.7-8.6 5.8-10.2 2.6-.7 6.2-.66 7.1 2.6-2.6.2-6.6-1.6-8.3 1.4-2.2 4.8-3.9 10.9-.43 15.6 3.2 2.6 7.5 2.0 11.4 1.8 22-.49 44-.75 66.0-.91 2.3.19 4.4-1 6.4-2.0 1.3-5.5 1.9-12.5-3.2-16.2-4.1.01-8.3.02-12.5-.03-2.9 1.5-6.2 2.3-9.4 3.1-.49.5-1.4 1.6-1.9 2.1-2.3-2.7-3.4-6.1-4.5-9.5-2.3-5.6-2.8-12.2-.32-17.8-3.1 2.3-7.4 2.8-10.7.65 2.6-.36 5.5-.01 8.0-1 1.6-.49 3.1-1.4 4.8-1.2 5.8.55 11.7-1.0 17.5-.08 4.6.87 9.3-.71 14.0.02 2.6 1.5 4.6 3.9 7.1 5.7-1.7-2.6-3.6-5.4-6.4-7.1-5.8-2.4-11.9.71-17.9-.12-4.5-.63-9.2-.43-13.8-.56-.29.1-.86.3-1.1.41-3.8-1.7-7.2 1.8-11.0 1.6-2.9.33-4.6-2.5-6.6-4.1.02.9.08 2.7.1 3.6-2.3 2.3-4.5 5.0-7.7 6.1-5.6 1.5-11.3-.08-16.8-1.0 1.1 1.0 2.2 2.0 3.3 3.0-.88-.41-2.6-1.2-3.5-1.6 1.0 4.3-1.5 8.7.05 13.0 1.1 4.7 4.5 8.4 7.5 12.2 5.2 1.1 10.6 1.7 16.0 1.8 4.5-.02 8.4-2.7 12.9-3.0 2.7-.31 5.2-1.4 7.2-3.2l-.08 3.1c-2.6 3.4-7.4 2.8-11.2 3.4-10.5 1.9-21.6 1.2-31.8-2.1 1.2-.2 2.4-.25 3.6-.38-3.5-4.5-8.4-9.1-7.9-15.4.6-3.8 1.4-7.6 1.4-11.5-2.2-4.9-3.5-10.3-5.1-15.4-1.4-4.6-1.9-9.5-1.6-14.4-2.5-3.2-4.6-7.4-4.5-11.6 1.7-5.1.87-11.1 4.8-15.2.28.0.83.2 1.1.34 1.6 2.3-1.3 5.1-2.1 7.4.08 3.3-.73 6.5-1.4 9.7 1.0 2.6 1.4 5.5 3.4 7.7 1.0 1.5 2.9 2.7 2.2 4.9-.48-.72-.96-1.4-1.4-2.2-.17 1.2-.37 2.4-.6 3.6l1.6-1.6c-.09 3.0-.68 6.0-.43 9.1.57 2.8 1.7 5.5 2.5 8.3.79 1.7 1.2 3.6 1.6 5.4.99.7 2 1.5 2.9 2.3.9.1 1.8.33 2.7.49-.77-.46-1.5-.91-2.3-1.3-1.7-3.5-3.6-6.9-4.3-10.8 2.9 3.1 4.7 7.1 7.3 10.5 3.5 2.2 8.0 1.8 12.0 1.7 1.9-5.3-1.3-10.5-2.2-15.7 3.9 3.3 3.9 8.7 5.0 13.4 1.3-.87 2.6-1.8 3.9-2.8-.34-3.5.11-7.1.2-10.7.65-2.5 2.0-4.7 2.8-7.1-3.2-1.0-6.4-2.2-9.1-4.3l-.04 2.6c-3.4 1.1-7.6.7-9.6 4.2-1.1.5-2.1 1.0-3.2 1.6.38 2.9.7 5.9.38 9-1.4-2.1-1.6-4.6-1.8-7.1l-2.4-.44c2.5-2.3 5.5-4.3 7.2-7.4.76-2.0.71-4.3.9-6.4-2.3-.6-4.7-1.1-7.2-1.5a48.5 48.5 0 01-4.2 2.9c.64-2.0 1.5-4 2.3-5.9 9.3.93 16.9 7.0 25.7 9.9 3.5 1.5 7.7 2.8 11.3.72 4.4-.36 8.9-.2 13.2 1.3 3.5 1.2 7.1 2.2 10.8 2.4 5.4.6 10.6-1.9 16.0-1.1 3.0.38 6.0.65 9.0.71 1.9.86 3.9 1.6 6.0 2.3.51.6 1.0 1.3 1.5 2.0l-1.6.29c1.0.75 1.8 1.9 3.1 2.3 4.1-.09 7.9-1.9 11.2-4.3-4.1.79-8.2 2.1-12.6 1.8.02-.76.0-1.5.07-2.2 1.6-.98 3.3-1.9 4.7-3.2 1.5-2.2 1.3-4.9 1.1-7.4-2.2-1.0-4.4-2.3-6.3-3.9-2.1 1.5-3.8 3.7-6.2 4.9-2.8.25-5.6-.4-8.4-.97-.39.1-1.1.4-1.5.54-5.4-3.0-11.7-3.6-17.4-5.8-3.6-1.2-7.5-.51-11.2.32-1.4-1.5-2.5-3.7-4.6-4.4-5.7-1.6-11.3-4.1-17.4-3.8.34.9 1.0 2.9 1.3 3.9-1.0-.57-3.1-1.7-4.2-2.2-1.8-1.2.2-2.5 1.2-3.0 5.8-2.0 11.8.42 17.4 2.1 2.9.62 4.9 2.9 7.1 4.7 7.1-2.1 14.0 1.0 20.9 2.7 2.7.82 5.1 2.6 7.8 3.5 3.0.47 6.0.17 9.1-.02 1.0-1.5 2.0-3.0 3.4-4.3 1.9-1.1 4.2-.3 6.2.04.1-.54.3-1.6.43-2.1 1.9-.3 3.8-.63 5.7-.98-2.6-.71-5.4-.76-7.9.54-1.4 0-2.9-.18-4.3.03-2.2 1.1-3.9 3.6-6.5 3.6-7.7-1.6-15.0-5.0-22.3-7.9-3.3-1.6-7.0-.81-10.5-.96-3.9-.63-6.4-4.2-10.2-5.2-4.0-1.6-8.4-.69-12.6-1.6-1.2-2.4-3.2-4.3-6.0-4.9m78.6 22.5c2.0 2.7 1.4 5.9.25 8.9l-.97-2.0c.13 1.1.28 2.3.3 3.5-.96 1.6-2.3 3.0-3.6 4.4 2.6-1.0 6.9-.85 7.4-4.4 1.1-3.6 1.7-9.8-3.4-10.4m-89.7 3.3c-.03 1.6-.04 3.2-.02 4.9 2.5.36 4.6-1.0 6.5-2.5-2.1-.8-4.3-1.6-6.5-2.3m33.7 27.7c-1.2 5.8-3.2 12.4-.37 18.0.58 2.0.99 4.2 1.3 6.3 5.3-.42 9.7-3.6 14.1-6.2 4.0-2.7 9.3-1.1 13.5-3.5.22 1.4-.13 3.1.89 4.3 3.7 4.9 8.3 9.3 13.9 12.2 8.7 3.8 18.2 6.9 25.4 13.6 2.7 3.4 6.9 5.3 11.2 6.1 2.0-1.7 3.8-3.9 4.7-6.4 1.7-5.0 5.0-9.4 8.4-13.5l-.28-1.2c-.24-.07-.73-.2-.97-.27-3.9 3.0-8.6 5.0-13.2 7.0 3.0-4.5 9.3-4.7 13.2-8.4.71-.1 2.1-.31 2.8-.41-.01-3.2-.36-6.9-2.8-9.2-2.6.12-3.5 2.7-4.3 4.7-1.1 2.9-4.5 3.9-6.6 6.0-2.0 2.1-5.2 3.7-8.2 2.6-1.7-1.4 1.7-1.7 2.5-2.2 2.2-5.0 7.1-8.0 10.6-12.0-.07-1.3-.2-2.6-.38-3.9-1.1-1.2-3.0-.75-4.5-1.1-3.6 2.5-6.5 5.9-10.3 8.2-3.4 1.1-7.8 2.8-11.0.07-6.4-5.6-12.9-11.6-20.8-15.0 1.8 1.7 3.5 3.7 5.4 5.4 3.4 3.3 8.5 4.5 11.7 8.1 3.9 3.1 7.8 6.4 12.0 9.1l3.1-.32c.04 1.4.19 3.7-1.8 3.5-8.2-4.6-14.4-12.3-23.0-16.3-4.8-2.4-7.4-7.5-12.0-10.2-2.2-1.3-3.1-4.8-6.2-4.8-9.3.58-18.7-.54-28.1-.36m14.8 21.1c3.7.29 7.4-.07 11.2.2.5.63 1.7 1.9 2.2 2.5.39-.5.7-1 1.1-1.5-1.3-1.5-2.6-3.0-3.8-4.6-3.6 1-7.2 2.1-10.7 3.4z"/><path d="M62.2 68.9c4.5-5.0 13.9-1.7 15.9 4.2-1.1 2.5-3.3-.19-4.5-1.2.5-.11 1.6-.32 2.2-.43-1.7-.99-3.3-2.2-5.3-2.8-2.7-.4-5.4.43-8.2.23zM49.7 72.7c1.3-2.8 5.7-2.5 7.8-.84-2.5.58-5.2.81-7.8.84z"/><path d="M59.0 76.8c1.2-2.1 2.7-4.3 5-5.5 1.5-.19 3.1-.18 4.6.04a221.1 221.1 0 00-9.6 5.5zM52.5 74.6c2.7 2.4 1.2 6.8-1.3 8.8-1.1 2.0-3.5 1.0-4.9-.17.8-.15 2.5-.45 3.3-.6 2.4-2.0 2.6-5.1 2.9-8.0zM65.9 82.6c2.5-1.9 5.9-2.4 8.9-1.5-2.8 1.1-5.9 1.7-8.9 1.5zM83.3 83.9c2.4-.89 5.2-1.7 7.7-.44 3.7 1.0 5.8 4.6 8.8 6.9-2.7-.26-6.1-1-6.8-4.1-2.0-1.1-4.2-2.8-6.6-1.7-.92 1.4-.79 3.6-2.3 4.5-4.3.75-8.8-1.7-11.1-5.4.45.0 1.3.02 1.8.0 1.2.93 2.6 1.7 4.0 2.4 1.3.59 2.6 1.1 3.9 1.7.13-.99.3-2.9.51-3.9zM100.0 90.9c6.3-2.5 13.4-4.6 20.1-1.9-3.2 1.0-6.8.1-10.1.81-3.3.19-6.5 2.0-10.0 1.1zM62.7 101.0c2.2-1.7 6.7-5.1 8.9-1.6-3.2-.36-5.6 2.6-8.9 1.6zM173.2 130.2c1.5-3.6 4.4-6.3 7.4-8.7 4.6.19 8.2 3.7 12.3 5.5 3.9 3.1 8.8 4.9 12.6 8.2.2.8.6 2.4.79 3.2-3.9-3.6-10.0-4.6-12.9-9.3v2.0c-3.7-3.8-8.7-5.6-13.5-7.9-2.2 2.2-3.9 5.0-6.7 6.7zM108.9 133.5c7-.52 11.1-8.5 18.5-7.1-1.2 1.2-2.8 1.4-4.4 1.8-2.9.46-4.9 3.0-7.5 4.3-4.0 1.6-8.7 2.5-13.0 1.1 2.1-.09 4.3-.02 6.4-.19zM135.8 133.3c4.9 2.0 8.6 6.0 13.2 8.5 2.0 1.0 3.7 2.6 5.1 4.4-2.8-1.0-5.1-3.3-7.7-4.8-3.5-2.6-7.8-4.5-10.6-8.1zM48.4 153.1c1.7-.84 3.5-1.6 5.5-1.4 18.0.01 36.0-.16 54.1-.2 4.2.0 8.4-.44 12.6.5-2.0 1.9-5.0 1.3-7.6 1.5-19.7.03-39.4.6-59.1.64-1.9.0-3.7-.57-5.5-1.1z"/></svg>
