<svg xmlns="http://www.w3.org/2000/svg" viewBox="0 0 276 225" fill="currentColor"><path d="M187.9 40.9c2.8-5.8 11.0-9.4 16.8-5.7 5.1 3.5 7.3 9.6 9.3 15.2 4.4-1.8 8.8-3.7 13.4-4.9 1.1 1.3 1.6 3.1 2.1 4.8-4.7 2.2-9.7 3.5-14.5 5.8-.72 7.8.67 16.7-4.3 23.6-2.7 4.7-8.8 5.6-13.8 5.2-6.2-3.1-9.7-10.1-11.2-16.8l-.44-.37c-5.9 2.1-11.6 4.7-17.5 6.8-3.2 1.1-6.8 1.5-9.7 3.5-1.8 1.4-3.5 3.1-5.3 4.6-.47 4.2-1.0 8.4-2.7 12.3l-1.3.27c.16-4.6 1.7-9.1-.04-13.6l2.4 1.7c-1.1-2.7-1.8-5.9-4.1-7.9-4.8-.18-9.7 1.2-14.2 3.1 1.6-2.0 3.3-4.8 6.3-4.6 3.5-.18 7.5-1.6 10.5.83 11.5-4.7 23.3-8.9 34.9-13.7-.74-6.8.37-14.0 3.4-20.3m2.2-.83c-4.5 6.0-3.9 13.9-5.0 21.0 3.5-1.5 7.1-2.8 10.6-4.1.56 1.0 1.1 2.0 1.6 3.0-.13.7-.4 2.2-.53 3.0-3.1 1.4-6.3 2.6-9.5 3.8-.14.2-.43.8-.57 1.1 1.7 5.1 4.3 10.2 8.5 13.7 2.2 1.9 5.2.85 7.8.44.3-3.9 2.8-7.2 3.4-11.1 1.7-8.9.49-18.6-4.1-26.6-1.5-2.6-4.1-4.5-5.7-7.1l1.9-.12c5.3 3.9 7.6 10.6 9.2 16.8 1.8 9.5 1.6 20.3-4.6 28.3 6.5-1.3 8.8-8.6 9.9-14.4 1.1-9.4-.36-19.6-6.0-27.4-2.0-2.8-5.4-4.0-8.5-5.3-3.0 1.2-6.7 1.8-8.6 4.9m23.9 11.6c.11.7.31 2.1.42 2.8 4.4-1.8 9.0-3.4 13.5-5.1-.51-.75-1.0-1.4-1.6-2.1-3.9 1.8-8.1 3.2-12.3 4.4M186.4 62.6c-11.9 4.6-23.8 9.3-35.7 13.8-.18.6-.53 1.9-.71 2.5 2.6-.9 5.1-2.0 7.8-2.9 11.4-3.4 22.2-8.6 33.5-12.6 1.8-.96 5.0-1.0 4.7-3.8-3.4-.18-6.4 1.9-9.6 2.9z"/><path d="M61.3 64.0c1.9-2.7 5.0-4.9 8.6-4.4 7.6-.37 13.5 4.8 19.5 8.7 3.6 3.0 7.3 6.2 11.0 9.1 2.1.8 4.3 1.2 6.4 1.8-1.3.7-2.6 1.3-4.0 2.0-1.9-1.5-3.8-3.1-5.7-4.8-3.4.11-6.8-.44-10.2.04-2.5 1.9-3.9 4.8-4.2 7.9 3.4.27 7.0-1.4 10.4-.1-2.2 1.0-4.5 2.1-7.1 2.1-4.7-.47-8.2-4.3-13.0-4.6-5.7-1.2-11.1 4.0-12.1 9.4 3.8 3.8 6.2 8.7 7.6 13.8 8.6-2.6 16.7-6.5 25.2-9.4 5.1-1.6 9.6-4.6 14.6-6.5.01-3.0 2-5.9 5.0-6.7 4.7-1.4 10.3-4.1 14.8-.68 1.0-.45 2.1-.91 3.1-1.3.27.6.83 1.9 1.1 2.6-2.7.95-5.5 2.1-8.4 2.2.46-.57 1.3-1.7 1.8-2.2-1.6-.46-3.3-.89-4.9-1.3-3.6 2.3-9.8 2.1-10.4 7.4 2.1-1.4 3.8.42 5.5 1.5-1.2-.17-2.5-.33-3.7-.48-2.1 1.5-4.6 2.5-7.1 3.4-12.0 4.3-23.6 9.8-36.1 13.0l.44 2.9c7.1-2.9 14.2-6.0 21.7-8.1 7.2-2.5 14.1-5.6 21.5-7.8.7 1.1 1.4 2.2 2.1 3.3-.63 1.0-1.2 2.0-1.8 3.0l-1.8.64c-3.6 4.1-7.9 7.7-10.9 12.5-1.5 3.4-2.8 7.1-2.9 10.9l-1.4.2c.21 3.3 3.7 3.9 5.8 5.7 3.5 2.7 6.3 7.2 11.3 7.5 5.0.38 9.7 2.1 14.6 2.8l1.4 1.4c3.3-.14 6.6-.75 9.6-2.1-.02-1.4-.04-2.8-.05-4.2.85-1.0 1.7-2.0 2.5-3.0-.14 1.8-.41 3.6-.5 5.4 4.2.95 8.2-1.5 12.3-1.9 1.0.71 2.0 1.4 3.1 2.1a340.7 340.7 0 00-1.6-3.3c1-2.8 2.7-5.3 5.3-6.9-1.3 2.0-3.3 4.2-1.9 6.9.45 2.6 3.2 3.2 5.2 4.1-1.7.3-3.5.46-5.3.52 2.4 3.5 5.4 6.6 9.3 8.6 2.6-.13 5.7.77 7.8-1.2 1.7-1.5 3.6-3.0 4.7-5.1 1.6-8.5-1.3-17.9-7.9-23.8-2.3-2.1-5.5-2-8.5-1.7-2 3.8-3.0 8.5-6.5 11.4.42-4.8 3.1-9.1 6.8-12.2.4-1.9.08-4.0.23-6.1 1.1 1.7 2.1 3.6 3.0 5.4 2.0.14 4.0.37 6.0.65 1.2-3.8-.48-8.0-3.8-10.1-2.0-1.3-4.5-1.2-6.8-1.6 1.6 1.8 3.3 3.7 4.8 5.7-4.9.32-5.9-5.4-9.9-7.0-1.8-.86-3.7-1.6-5.5-2.5 2.7-.56 5.3.29 7.7 1.6 5.4-.45 12.0.94 14.8 6.2 1.9 2.6 1.3 6.1.31 9.0 3.8 5.1 7.7 10.6 8.9 17.1.8 5.1-2.3 9.8-5.5 13.5.23.1.69.4.92.6-1.2.31-2.4.62-3.6.95-.23 1.2-.45 2.4-.65 3.7-3.9 3.1-8.7 5.0-13.1 7.3-4.5 2.4-9.6 3.3-14.4 5.0-.99 5.7.01 11.7-.59 17.6 5.2-2.0 10.1-5.1 15.5-6.8 2.7 1.0 5.0 2.9 7.5 4.3.79 3.4.98 6.9 1.1 10.3-10.0 5.2-20.5 9.8-30.8 14.7-5.7 2.8-11.6 5.6-17.5 8.1-2.4-1.6-5.0-2.9-7.2-4.9-.93-1.7-.59-3.9.37-5.6 1.4.49.6 3.1 1.2 4.4a366.3 366.3 0 015.7 3.9c15.4-7.0 30.6-14.4 46.0-21.5-.11-2.3-.12-4.7-.5-7.0-1.9-1.8-4.4-3.0-6.7-4.5-4.9 2.2-9.8 4.5-14.8 6.7.12 2.4.28 4.9.42 7.4-.61.3-1.2.66-1.8.99-1.8-9.3-.29-18.8.8-28.2-3.8-1.7-7.7-2.9-11.6-4.4.14 7.2.27 14.5.47 21.8-.55.1-1.6.52-2.2.7-.78-8.1.08-16.4-1.0-24.5-2.6-2.9-6.4-4.3-9.5-6.6-4.5-3.2-9.8-5.2-14.4-8.3-3.1-1.7-5.9-4.1-9.2-5.5-1.9.31-3.6 1.3-5.4 2.1-13.4 6.4-26.9 12.7-40.4 19.0-2.5-1.5-5.2-2.9-7.3-4.9-1.0-2.6-1.1-5.6-.66-8.4 3.3-2.2 7.1-3.8 10.8-5.4-3.2-.21-5.8-2.2-8.1-4.3-4.5 4.1-11.2 2.5-16.1-.01-3.9-1.9-7.8-3.9-11.5-6.3-1.9-2.0-2.6-6.4.05-8.1 3.2-2.8 7.9-1.4 11.4-3.4 2.1-.73 2.5-3.3 2.4-5.3-.39-5.1-2.0-10.0-2.2-15.1-.17-7.7.6-15.3.58-23.0 1.0-2.7 2.8-6.1 6.1-6.4 2.8-.39 5.7.55 8.6.71 4.4.46 9.6.74 12.7 4.4.51.0 1.5.18 2.0.25.1-3.2-.43-6.6.53-9.8m1.8 1.1c.46.5 1.3 1.5 1.8 2.0-.41.2-1.2.77-1.6 1.0-.28 2.3-.65 4.6-1.0 6.9 1.4.69 2.8 1.3 4.3 2.0-.09-.72-.26-2.1-.34-2.8 3.1.51 6.3 1.2 9.0 3.1-2.9-.02-5.7-.62-8.6-1.1 1 1.3 1.9 2.6 2.9 3.9 3.5-.05 7.1.25 10.5 1.4 1.4-1.7 2.7-3.5 4.4-5.1 2.4-1.4 5.4-1.8 8.1-2.6-5.4-5.6-12.3-9.8-19.8-12.1-3.6-1.1-7.7-.09-9.7 3.3m-27.1 5.8c-1.3 1.0-2.1 2.5-2.7 4.0-.78 9.2-1.7 18.5-.64 27.7.49.2 1.4.62 1.9.83-.96-5.3-.18-10.8.9-16.1.49.0 1.4.03 1.9.03-.45 4.1-1.5 8.2-1.1 12.4.19 4.5 1.6 8.9 1.4 13.4-1.7-3.0-2.5-6.5-2.9-10.0-.49.6-.98 1.2-1.4 1.9.81 4.2 1.3 8.6 1.3 12.9 1.4-.64 2.9-1.2 4.3-1.9-1.1-8.6.92-17.7 6.2-24.8-1.5 1.3-3.6 2.1-4.9 3.8-.35 2.0-.47 4.1-.82 6.1-1.6-2.1-1.4-5.0-.72-7.5 1.5-2.3 4.6-2.7 6.9-4.1l-.58 2.0c.82-.36 2.4-1.0 3.2-1.4-1.7-1.4-3.3-2.9-5.0-4.3-1.6-.54-3.4-.4-5.0-.73-.54-1.5 1.6-1.6 2.6-1.8 4.4-.75 6.2 4.5 9.8 6.1l2.0-1.3c1.7.34 3.4.71 5.1 1.1 2.1-4.4 6.3-7.0 10.7-8.9-6.2-2.7-12.1-6.3-18.2-9.3-4.6-2.2-9.9-1.3-14.7-.22m9.2 23.5c-4.8 6.1-4.7 14.1-5.4 21.5 3.6-1.7 7.5-2.7 11.3-4.1.72 1.9 2.3 4.1 1.0 6.2-5.3 2.7-11.5 3.8-16.3 7.4l-2.3-.04.3.7c-2.5-.28-6.7 3.0-7.6-1.0l-.25-2.6c1.1.88 2.2 1.8 3.0 3.0-.09-1.1-.16-2.3-.21-3.5l-.98 1.7c-.53-.81-1.0-1.6-1.5-2.4-2.7.71-5.5 1.3-8.3 2.1 1.1 2.8 2.6 5.6 5.6 6.9 4.4 1.9 8.8 4.1 13.5 5.5 2.8 1.0 5.8-.19 8.7-.57-1.8-2.6-3.3-5.4-4.4-8.5-.36.5-1.0 1.5-1.4 2.0.42-1.9.85-3.9 1.6-5.7 2.0 5.5 4.4 12.1 10.4 14.4 4.8.76 10.8-.76 12.9-5.6 4.8-9.8 4.5-22.0-.35-31.9-1.9-4.6-5.9-8.1-10.6-9.7-2.9 1.4-6.7 1.2-8.7 4.1m51.9 6.9l-1.9 2.8c-.67 3.4-.92 6.8-.64 10.3-1.2-.95-2.1-2.1-3.0-3.3.63-2.9 1.1-5.8 1.8-8.7-6.1 2.5-12.5 4.6-18.7 7.3 5.8 2.4 11.2 6.3 17.7 7.0-.05 1.2-.09 2.5-.11 3.7-.74-.15-2.2-.46-2.9-.61.7-.2 1.5-.4 2.3-.61-4.1.72-6.0-3.6-9.7-4.3-4.2-.73-7.8-3.1-12.0-4.0.07 2.4.13 4.8.18 7.3 3.4 1.4 6.3 4.0 9.5 5.8 8.4 4.2 15.8 10.4 24.4 14.4 3.4 1.5 6.5 3.5 9.8 5.2 4.6 2.2 8.2 6.0 13.0 8.0 5.4 3.8 10.4 8.8 17.0 10.6 5.8.2 11.7-1.8 16.8-4.7 3.9-2.2 8.5-3.6 11.7-7.1-6.7.8-14.4-2.3-16.3-9.3-3.2-3.1-8.2-.62-12.2-.81-5.2-1.0-8.8 4.4-14.1 3.8-5.6-.52-10.6-3.3-16.0-4.6-7.1-1.9-12.9-6.6-18.8-10.8-2.3-3.1-.61-7.2-.18-10.7 2.7-8.5 10.7-13.7 15.2-21.3-4.3 1.4-8.5 3.0-12.8 4.6m-67.1 20.4c.35.6 1.0 1.9 1.4 2.5 4.5-1.7 8.9-3.9 13.6-5.3 2.4-1.0 6.1-1.3 6.2-4.7-7.3 1.7-13.9 5.5-21.2 7.5m39.9-2.6c-.25 7.2-2.5 14.8-8.0 19.8-5.1 3.0-10.8 4.9-15.8 8.2-1.1 1.8.05 4.3.02 6.4 2.4 1.1 5 4.4 7.9 2.6 13.6-6.4 27.2-12.7 40.8-19.2-4.0-2.9-8.1-5.8-12.1-8.9-2.8 1.2-5.7 2.7-8.9 3.1 1.5-2.1 3.9-3.0 6.0-4.5-3.2-2.5-7.2-4.3-9.9-7.5z"/><path d="M65.7 68.6c4.3 1.7 9.3.43 13.4 2.9-4.0.13-8.1.36-12.2-.45-.44-.81-.85-1.6-1.2-2.4zM34.8 76.0c2.1-.86 4.3-1.4 6.4-2.3.16.5.49 1.7.65 2.2-2.2 1.0-4.9 1.6-7.1.05zM44.5 79.2c3.6-.56 8.3-.03 10 3.8-3.4-1.0-7.0-1.6-10-3.8zM135.4 79.0c.71.4 2.1 1.4 2.8 1.9-.15 2.3-1.3 4.5-2.2 6.6l4.3-.03c.28.5.83 1.7 1.1 2.2 1.2 1.3 2.4 2.8 3.5 4.3-.71.3-1.4.48-2.2.39-1.5-1.1-3.0-.82-3.6.98-.65-.07-1.9-.21-2.5-.27-.76 2.5-1.4 5.1-2.2 7.7-3.5-.11-6.3-2.7-9.8-2.9-3.2 5.7-6.1 11.7-7.9 18.0 3.0.92 6.1 1.7 8.6 3.7 2.6-.83 5.4-1.3 8.2-1.6-1.0-1.6-2.1-3.2-3.1-4.9 3.5-.37 4.9 3.5 5.5 6.3 4.2-.57 7.3 2.5 9.0 6.1 1.4-4.1 3.4-8.5 7.4-10.8 1.3.42 2.7.89 4.0 1.4-2.0.57-4.3.6-5.9 2.1-2.0 2.9-2.1 6.9-4.8 9.4.04.6.13 1.9.18 2.5-3.1-1.6-2.8-6.2-6.1-7.8-3.5-2.0-7.6-1.4-11.5-1.1-.98 2.4-3.2 3.6-5.6 4.4.33-1.5.77-3.1 1.0-4.7-3.7-1.8-7.9-4.7-12.3-3.0-2.3.59-3.9 2.4-5.8 3.8-1.3-1.4-1.8-3.2-1.7-5.1 3.6 1.6 7.1-.6 10.3-2.1 2.5-7.0 6.5-13.3 10.1-19.9 1.8-3.0.93-8.2 4.8-9.6-.03 2.1-.34 4.2-.87 6.3 2.0.14 4.1.41 6.1.89 2.3-.44 4.6-.79 6.9-1.1-1.1-1.5-2.6-2.7-4.5-3.1-2.1-.48-3.3-2.5-4.6-4.1 1.3-.46 2.7-.91 4.1-1.3-.18-1.8-.38-3.7-.49-5.5m-8.6 16.0c-.25 1.0-.51 2.0-.76 3.0 2.4.76 4.7 1.8 7.0 3 .34-1.6.66-3.2.94-4.8-2.3-.89-4.7-1.1-7.2-1.2zM74.3 95.7c1.3-2.9 3.0-5.8 6-7.3.14 2.3-1.7 3.7-3.2 5.1-.48 1.0-1.0 2.0-1.5 3.0-.3-.21-.9-.64-1.2-.85zM87.2 97.4c-.09-4.6 4.5-7.0 8.5-7.3-2.5 2.7-5.3 5.3-8.5 7.3zM52.2 92.1c1.6.2 3.2.8 4.1 2.2 6.7 9.8 9.2 22.6 6.1 34.2-.8 2.9-1.8 6.1-4.5 7.8 1.7-5.4 4.4-10.6 4.1-16.5.7-10.1-3.3-20.1-9.8-27.8z"/><path d="M144.2 96.7c.22-.37.6-1.1.9-1.4 1.3 1.2 2.6 2.4 3.8 3.7-1.6-.71-3.2-1.4-4.7-2.2zM133.1 105.1c2.9-.85 5.9-1.7 8.8-2.8-2.4 3.8-7.8 3.4-10.4 7.2-2.6 2.4-1.7 6.3-2.4 9.5l-1.7 1.0c.15-3.0.17-6.0.72-9.0.89-2.4 2.8-4.5 5.1-5.9zM123.0 105.2c2.1-.43 4.2-.69 6.4-.95l-.2 2.1c-2.1-.14-4.5.44-6.2-1.2zM43.3 111.7c1.4-1.2 2.6 1.3 1.2 2.1-1.4 1.2-2.6-1.3-1.2-2.1zM34.0 126.2c.59.6.59.6 0 0zM130.2 144.6c6.3 1.0 11.5 5.2 17.8 6.7 2.6.63 5.4.3 8.1.4-1.2.99-2.3 2.5-4.0 2.3-4.4.45-8.5-1.8-12.5-3.3-3.4-1.3-7.0-3.0-9.2-6.1zM132.0 190.8c.47-2.6-.25-5.7 2.0-7.7.34 2.9.4 5.9.3 8.8-5.8 3.1-11.9 6.0-17.8 9.1-.85.7-1.9.47-2.8.18 4.9-5.1 12.4-6.4 18.2-10.4z"/></svg>
