<svg xmlns="http://www.w3.org/2000/svg" viewBox="0 0 284 208" fill="currentColor"><path d="M169.2 57.8c4.9-3.1 11.2-5.4 16.7-2.1l.45-1.3c-.34 1.1-.65 2.2-1.0 3.2a15.3 15.3 0 00-12.2.38c-3.6 2.1-5.6 6.2-6.8 10.1-.3 5.9-2.3 12.7 1.4 18.0 6.1 1.9 12.5-1.6 16.2-6.5-.05 5.4-6.2 6.8-9.4 10.1 1.7 2.5 2.9 6.0 1.1 8.8-.1-.84-.28-2.5-.37-3.3-1.6-1.9-1.5-4.9-3.3-6.7-.88-.01-2.6-.02-3.5-.02.4 2.7 1.8 5.5 1.0 8.3-.95 3.6-1.2 7.4-.71 11.2.68 3.3 4.9 5.1 3.2 8.9 1.3-.67 2.7-1.3 4.1-1.9.3 1.0.77 2.0 1.1 3.0 2.4 1.3 4.8 2.8 6.3 5.2-.72-.03-2.1-.11-2.8-.14-1.3-1.3-2.8-2.5-4.3-3.7-.21 2.0-.36 4.0-.45 6.1 4.0.85 7.1 4.3 7.4 8.4-3.3-1.2-3.2-5.8-6.5-7.3-1.0 2.2-2.1 4.5-2.9 6.8.4.7 1.2 2.1 1.6 2.8-1.7-.26-3.5-.55-5.2-.7-.12.6-.34 2.0-.45 2.7 1.4.39 2.9.84 4.4 1.3l2.2 3.2c-3.6-1.1-6.7-3.7-10.6-4.3-2.1-.32-3.9-1.6-5.5-3.0-1.0 1.1-1.8 2.5-2.3 4.0-3.2-1-6.5.25-9.9-.18-2.8-.38-5.5-1.2-8.2-1.9 1.3 1.4 2.7 2.8 4.0 4.3.03 1.6.07 3.3.08 5 2.8.98 5.8.72 8.8.4 1.3-.98 2.2-4.6 4.2-3.3 2.6.24-.35 1.9-.58 2.9.29.7.59 1.5.89 2.3-2.9.43-5.9.26-8.8-.25 2.2 4.5 4.3 9.1 5.8 14.0 1.8 5.1-4.2 9.0-2.6 14.2 2.8-.89 5.4-2.6 8.4-2.6 4.5-.23 8.7 2.2 13.2 2.7 3.2-1.9 7.1-2.5 9.8-5.2 4.3-3.7 6.4-9.2 8.0-14.6-2.8-3.8-5.2-8.3-9.7-10.5-1.5 4.4-1.6 9.1-2.6 13.6-.62-5-.21-10.0-.26-15.0-.58-.43-1.7-1.3-2.3-1.7.76-.48 1.5-.96 2.2-1.4 5.1 2.6 10.4 5.7 12.6 11.3 1.3-.41 3.0-.43 3.8-1.7 7.4-8.7 12.6-19.4 14.0-30.9 1.5-3.6 2.2-7.6 4.1-11.0 1.6-.82 2.8 1.7 1.9 2.9-3.1 7.0-4.3 14.7-6.4 22.1 1.2.84 2.4 1.7 3.5 2.6 3.2-3.0 7.6-4.5 12.0-4.4 1.7-4.6 4.7-9.1 3.5-14.2-.94-2.9-1.6-5.8-2.1-8.8-.94.3-2.8 1.0-3.7 1.4-4.4 1.0-7.7-5.5-12.0-2.3-4.8-1.6-10.0-2.6-14.2-5.8-1.8-1.6-1.8-4.2-1.8-6.4.54.9 1.0 1.8 1.5 2.8 2.0 1.5 3.9 3.4 6.0 4.8 3.2 1.3 6.8 1.3 10.2.77 1.9-2.0 3.8-4.8 7.0-4.3-1.1 2.2-2.9 3.9-4.7 5.6 3.7 3.2 9.1 2.3 13.0.07-1.5-.98-3.0-1.9-4.4-2.9 2.6.65 5.3 1.2 8.0 1.3-1.0 1.4-2.1 2.9-3.2 4.3 1.3 4.0 3.2 8.1 2.8 12.5.5 4.5-3.3 7.6-4.3 11.7 2.2 1.1 4.4 2.2 6.5 3.6-2.0.92-3.8-.64-5.7-1.2-3.6-.69-7.6-.44-10.7 1.7-.32 2.3-2.0 3.5-4.0 4.2-1.0 3.3-2.0 6.8-1.1 10.3 2.6.0 5.2-.04 7.8-.1 1.4-2.1 2.6-4.6 4.8-6.1 3.1-1.1 6.5-1.5 9.3-3.4l.2-3.7c.43.3 1.2 1.0 1.7 1.4 1.0-5.7 1.5-11.7 3.8-17.1 1.2-3.1 1.8-6.6 3.1-9.7 2.1-5.2 1.8-11.0 2.2-16.6-3.7-3.2-10.1-2.3-12.7-6.8.13-.2.3-.62.5-.83 4.9 1.7 9.6 4.0 14.3 6.2-.07 2.1-.02 4.3-.42 6.4-1.1 4.7.09 9.8-2.1 14.3-1.9 3.8-2.9 8.0-5.0 11.8.01 4.6-1.8 8.9-1.9 13.5-1.2 1.4-2.2 2.9-3.5 4.2-1.7 1.0-3.8 1.5-5.7 2.1 5.8 3.8 11.3 8.4 17.1 12.3 2.1 1.6 5.0 2.8 5.7 5.7-5.6-3.0-10.4-7.2-15.8-10.7-3.5-2.2-6.4-5.9-10.7-6.7-1.7 6.1-9.5 6.5-14.7 5.3-.02-1.4-.05-2.8-.09-4.2.54-3-2.7-4.2-4.5-5.8-3.2 3.7-6.1 7.9-10.0 11.0l-.12 2.6c-2.5 2.4-2.6 6.0-3.6 9.1-1.2 2.4-3.0 4.4-4.4 6.8-3.9 3.6-9.4 3.7-14.3 5.0.19 1.4.05 2.5-.9.6-3.6-.4-7.1-1.9-10.7-2.4-4.2.72-8.5 2.4-12.9 1.5-2.9-.36-3.7-4.6-7.0-3.8-4.1.2-8-.97-11.9-1.7-2.9-.73-5.7.55-8.5 1.2-3.7.97-7.5.07-11.3.5-5.2.36-9.8 3.8-15.1 3.6-6.3 1.2-12.2-1.6-18.0-3.6-2.7-.89-4.9-3.0-7.7-3.7-6.0-.3-12.1.52-18.1 1.7-4.1.85-8.7.67-12.5-1.4-2.3-2.1-4.4-5.1-4.0-8.4.26-5.7 2.5-11.3 1.4-17.1 1.2 1.4 2.6 2.9 2.3 5.0-.27 4.5-.94 9.0-1.5 13.6.1-.13.5-.39.7-.52.1 1.5.36 3.0.61 4.5 4.2 3.6 10.1 2.1 14.8.27.7-1.7-2.4-.77-3.3-1.5-3.4-2.6-4.2-7.3-7.2-10.4-.76-3.1-2.1-6.1-3.5-9.1-.63-.89-.36-1.9-.1-2.9 2.6 3.7 6.5 7.2 6.9 12.1 1 3.0 1.8 7.0 5.5 8.0 5.5 2.7 10.3-2.6 14.7-5.2 5.7-3.6 12.7-3.3 19.2-2.9 5.6-.12 11.3-.36 17.0-.08 3.7.23 7.1-1.7 10.6-3.0 3.8-1.8 8.2-1.5 12.3-1.7 5.4-3.3 11.9-4.0 18.2-4.9-.36-3.2-.9-7.3-4.6-8.2-6.1-.76-12.8-1.2-18.6 1.3-6.8-1.3-13.6 1.6-18.8 5.8-8.6-.42-17.3-.26-26.0.51-4.4.0-9.4.74-13.0-2.4-4.0-2.4-8.7-4.3-11.3-8.6-2.6-4.4-6.0-8.4-9.4-12.3-.83.1-2.5.47-3.3.63-.16 2.4-.35 4.9-1.9 7-2.9 4.2.06 9.2 2.3 12.9-.34.8-.68 1.6-1.0 2.5-2.5-2.5-3.3-6.0-4.6-9.2.09-2.4.2-4.7.39-7.1-3.4-.01-6.9-.37-10.4-.17l.48-2.0c3.5.12 7.1.4 10.6.77 1.2-1.7 2.1-3.6 3.5-5.1 1.3-.58 2.8-.84 4.3-1.1 1.4 1.1 2.9 2.2 4.4 3.3 2.5-.22 5.0.32 7.2 1.3.75 3.6 1.7 7.3 2.3 11.0 5.3 2.7 10.0 7.7 16.5 7.0 6.2-.98 12.5-2.2 18.9-1.9 3.7-.13 7.5.83 11.1-.55 2.8-.78 5.1-2.7 7.8-3.9 3.9-1.3 8.2.2 12.1-1.1 4.2-1.4 8.6-1.2 13.0-.79 2.9.34 5.8-.85 8.7-1.0 1.7.54 3.3 1.4 5.1 1.9 3.1.32 6.2-.47 9.3-.53.8-1.0 1.7-2.1 2.7-3.0 3.3-.94 6.1 1.8 8.5 3.7.74-.47 1.4-.94 2.2-1.4l-2.9-.59c1.8-1.2 3.8-.21 5.8.0-1.7-2.8.73-5.8 1.0-8.8.29-3.1 1.2-6.2 1.9-9.2-2.1.78-4.4 1.4-6.2 3.0.07 2.0.58 4.0.85 6.1-2.2 2.4-1.2 6.0-2.9 8.7-.78-.89-1.5-1.7-2.2-2.7.59-3 3.5-5.4 2.6-8.6-.87-3.2 1.6-5.8 2.3-8.7-1.7-3.2-4.5-6.2-4.6-10.1-.32-3.5 1.1-6.8 2.5-10.0-.65-2.2-1.1-4.4-1.2-6.7-.42-.28-1.2-.84-1.7-1.1-2.5-9.7-1.6-20.7 4.2-29.1M45.0 126.7c2.4 3.0 5.2 5.8 6.6 9.5-.77-2.8-1.5-5.7-2.3-8.5-1.4-.33-2.9-.67-4.3-1.0m159.6 15.5c1.5 1.2 3.1 2.4 4.6 3.7.26-1.3.5-2.7.74-4.0.74-.71 1.4-1.4 2.2-2.1-1.4-1.0-2.8-2.0-4.2-2.9-1.2 1.7-2.2 3.6-3.3 5.4m-79.8 11.9c.91.3 1.8.76 2.7 1.1l-1.0-.87c1.2-.54 3.7-1.6 4.9-2.1-1.6 1.7-3.1 3.6-5.2 4.8-1.3 1.5-2.6 3.1-4.0 4.6-3.6-.17-7.5-.13-10.9-1.6 3.1-.44 6.3.04 9.4-.38 1.6-1.4 3.1-3.0 5.1-4.1-3.1-1.7-7.1-2.0-10.4-.42-3.0 1.4-6.3 2.3-9.4 3.6-3.5 1.6-7.2-.37-10.8-.34-5.3-.58-10.6.31-16.0-.07-3.1-.3-6.0 1.1-9.0 1.7-6.6 1.1-11.0 7.0-17.7 8.3.19.3.58 1.0.78 1.4 3.5.82 6.3-3.1 9.9-2.1 7.0.31 12.7 5.1 19.5 6.5 7.6 1.4 15.7 1.2 22.9-1.7 2.4-.91 5.1-.54 7.6-.61 5 .21 9.8-1.7 14.8-1.1 4.7.31 9.2 1.9 14.0 2.0 2.9-.2 5.7-1.1 8.5-1.6.61-3 1.3-6.0.58-9.1-.52-5.0-4.0-9.0-7-12.9-6.8-.68-13.4 1.8-19.2 5.1m19.5 20.4l2.4 2.0c1.6-1.4 3.3-2.9 3.9-5.1-2.1 1-4.2 2.1-6.3 3.0z"/><path d="M186.2 57.7c.78-.41 1.5-.8 2.3-1.1 2.5 2.5 5.0 5.6 5.5 9.3-.21 3.6-.69 7.3-2.0 10.7.89 1.5 1.7 3.0 2.6 4.6 3.0.58 6.1 1.4 9.1 2.2.74 1.7 1.8 3.5 1.7 5.5-2.5-.73-3.8-3.4-6.1-4.6-2.2-.97-4.7-.93-7.0-1.7-1.1-1.9-1.8-4.0-2.6-6.1 1.3-3.3 1.1-7.0 1.6-10.6-.23-3.3-2.6-6.0-5.1-8.0zM184.1 84.3c.44 3.7-.55 8.7-4.8 9.5 1.1-3.3 2.9-6.5 4.8-9.5zM206.5 86.6c4.2-2.3 8.4-.25 12.5.96 4 .3 8.0.24 11.9 1.5-3.0 1.9-6.7.7-10.0.99-3.3.31-6.0-1.8-9.0-2.8-1.7-.31-3.5-.43-5.3-.72zM200.5 96.1c1.2-3.5 3.9-6.6 7.8-7.1-2.1 2.8-4.8 5.2-7.8 7.1zM190.2 94.7c2.3-1.1 4.6-2.1 7.0-3.1.32 1.5 1.3 2.4 3.2 2.6-5.7-.6-11.2 1.9-16.9 2.3-1.2 1.1-2.6 2.1-3.9 3.2-.62-.14-1.8-.43-2.4-.57 1.2-1.4 2.4-2.9 3.9-4.2 2.9-1.0 6.2-.59 9.3-1.3l-.08 1.0zM223.5 93.1c1.5.8 2.8 1.9 3.9 3.3 3.1.23 6.1-.36 9.2-1.0 1.5 1.7 2.6 3.8 4.0 5.7-.11 3.4.64 7.2-1.1 10.4-1.4 2.4-2.7 5.2-5.2 6.8 4-5.2 3.6-12.0 5.3-18.1-1.1-.88-2.2-1.8-3.3-2.7-3.4.68-6.9.67-10.4.22-1-1.4-1.6-3.1-2.3-4.6zM176.5 115.4c-1.8-3.1-1.8-6.8-.17-10.0.07 1.9.04 3.8-.02 5.8 1.6 1.6 2.9 3.5 4.4 5.2 2.9.73 6.3 1.8 9.1.01.6.4 1.2.97 1.8 1.4-3.3 2.8-7.8 1.8-11.5.34a33.3 33.3 0 00-3.7-2.8z"/><path d="M192.0 115.6c4.0 1.6 4.6-6.6 8.3-3.1l2.4-.52-.27.2c-.31 4.0-.89 8.3 1.9 11.7-1.8 3.2-2.4 6.9-2.5 10.6l-1.2.05c.07-2.5.13-5.0.47-7.5 1.1-4.1-2.7-7.8-.63-12.0-.46-.54-.91-1.0-1.3-1.6-2.0 3.4-4.9 6.4-8.7 7.9.88-1.2 1.8-2.5 2.7-3.7-.37-.64-.74-1.2-1.1-1.9z"/><path d="M184.3 127.4c3.6.27 7.4.15 9.6-3.2 2.4.17 4.8.32 7.2.68-1.7 1.4-4.0 1.6-6.2 1.7-2.6 3.1-7.8 4.3-10.7.8zM13.3 133.1c.05-3.0 2.7-5.0 5.6-4.9.52.6 1.0 1.3 1.5 1.9-1.5.5-4.2-.78-4.9 1.2-.67 1.7-.38 3.6-.45 5.5.1 7.4-.06 14.8.42 22.3 1.6 1.1 1.0 3.2-.04 4.6.84 9.1.69 18.3.73 27.5h-1.5c-.36-9.1-.23-18.3-.94-27.4.06-10.2-.4-20.5-.46-30.8zM185.0 133.0c3.7-1.3 7.7-2.0 10.9-4.6 1.3 1.4 2.8 2.8 4.2 4.2-2.0.94-3.5-.68-5.1-1.7-2.8 2.3-6.4 3.3-10.0 2.1z"/><path d="M181.6 140.5c2.1-3.8 5.9-6.1 10.1-6.9-2.2 3.6-6.8 4.6-10.1 6.9zM114.5 145.0c1.3-3 4.5-4.2 7.3-5.5l-.16 1.9c-2.2 1.7-4.7 3.1-6.4 5.4.89 1.7 2.6 2.7 4.0 4.1-3.4.9-5.9-2.1-5.1-5.4-1.0 1.0-2.1 2.0-3.3 2.9l3.0-3.4-2.7-.07c1.1.01 2.2.03 3.3.04zM163.2 141.0c3.9 2.0 7.1 5.2 9.9 8.6.16.5.47 1.6.62 2.2-4.5-2.4-7.8-6.6-10.6-10.8zM102.2 148.6c2.3-1.0 5.0-1.6 7.4-.37-2.2 1.3-4.9.95-7.4.37zM50.8 150.2c.75 3 1.6 5.9 2.4 8.9-1.3-1.7-2.6-3.5-3.8-5.3.48-1.2.95-2.4 1.4-3.6zM217.7 154.4c3.4-.03 5.5 2.9 8.0 4.7 5.0 4.4 10.7 8.2 15.4 13.0-.56.0-1.6.11-2.2.15-6.8-6.2-14.6-11.4-21.2-17.9zM77.4 163.4c4.8-.2 9.7-.05 14.6-.04 4.4.12 9.1.14 13.2 2.2-2.0.1-4.2.0-6.2-.17-7.1-.93-14.5.1-21.5-2.0zM116.7 163.9c4.4-.69 9.6-1.4 13.5 1.2-4.5-.2-9.1-.29-13.5-1.2zM130.4 166.9c2.4-.92 4.8.63 7.2.91l-.12.9c-2.4-.42-4.8-1.0-7.1-1.8zM105.0 168.0c3.1.4 6.6.58 9.2 2.6-3.1-.4-6.9 0-9.2-2.6zM62.8 171.2c3.2 3.4 3.2 8.4 4.8 12.6 1 4.3 3.3 8.5 2.6 13.0-2.1-1.2-2.5-3.8-3.1-5.9-1.3-5.3-3.1-10.6-4.5-16.0.05-.93.1-2.8.2-3.7z"/></svg>
