<svg xmlns="http://www.w3.org/2000/svg" viewBox="0 0 177 250" fill="currentColor"><path d="M51.7 40.7c3.5-1.9 6.9-4.8 11.2-4.4 2.9-.17 5.5 1.2 7.9 2.8 3.2 1.5 3.2 6.0 6.4 7.8 4.3-3.1 10.0-1.6 14.6-3.8 4.3-1.7 9.4-1.1 13.4 1.1 2.9 1.1 6.1 2.2 8.1 4.9 3.3 4.1 8.4 5.9 12.7 8.7 3.6 6.4 7.9 12.5 12.0 18.6 1.7 2.8.29 6.2.51 9.3.4 6.3.2 12.8-.35 19.1-.16 2.5-1.4 4.7-2.3 7.0-1.9 3.6-.72 8.0-3.0 11.5 3.3 1.6 4.2 5.2 5.3 8.4.86 5.1-.96 10.2-.44 15.3.76 7.7 1.3 15.6.68 23.4-.01 4.4-2.7 8.4-2.3 12.9.21 3.2-.48 6.4-.06 9.6 2.6 4.7 2.8 11.1 7.9 14.2.23 2.8 1.0 5.8.06 8.6-.84 2.1-1.9 4.1-2.8 6.2-4.2.8-8.4 2.0-12.7.73a32.3 32.3 0 00-5.0-2.7c-1.0-2.1-2.3-4.2-2.3-6.6-.27-4.2-3.3-7.6-4.0-11.8 1.1-1.8 2.2-3.9 2.1-6.2.29-.25.8-.76 1.1-1.0-.94-5.0 1.8-10.2-.38-15.1-2.0-4.7-3.5-9.7-3.8-14.8.88-5.7 4.2-11.1 3.0-17.1-.37-2.6-1.7-5-2.3-7.6-2.0-.92-3.6-2.4-4.9-4.2-1.6 1.0-3.1 2.8-5.2 2.4-3.2-.18-5.1-3.2-8.2-4.0-2.5-.64-4.9-1.9-7.3-2.8-3.5-.88-6.9 1.2-10.4 1.5-3.3 2.6-7.2 4.5-11.1 6.0-1.4-.15-2.8-.28-4.3-.42.4-.47 1.3-1.3 1.7-1.8-.02-.65-.05-1.9-.07-2.5-1.7-1.6-3.2-3.5-5.0-5.1-2.2 1.4.7 4.5.79 6.6-1.6 5.0 2.1 9.8 1.1 14.9-1.1 5.7-3.4 11.5-1.8 17.5.59 4.4 4.3 7.3 7.6 9.9 1.1 2.1.83 4.8 1.0 7.2 1.8.94 3.8 2.6 5.9 1.4 2.1-1.0 4.7-1.7 6.2-3.7 1.0-2.7.37-5.7.03-8.5.54-.46 1.0-.93 1.6-1.3.65 3.0 2.2 6.2.88 9.4-1.1 2.1-2.3 4.3-4.3 5.7-2.4 1.2-5.1 1.3-7.7 2.0-1.1-.95-2.2-1.9-3.2-2.9-2.7 1.2-5.4 2.4-8.2 3.5-.72 1.3-.9 3.3-2.5 3.9 1.3 2.4 3.7 4.6 3.1 7.7-1.3 5.2-6.6 8.2-11.4 9.9-3.2 1.1-4.5 4.8-7.4 6.4-2.1 1.0-4.3 2.2-6.5 3.2-2.4.97-5.1-.24-7.1-1.6-.97-2.7-1.5-5.9-.29-8.6 1.1-2.1 2.6-4.1 3.9-6.1.37-.1 1.1-.31 1.4-.41 2.2-3.8 3.2-8.4 6.8-11.3-3.5-3.6-5.8-8.8-4.6-13.9 1-2.3 2.3-4.5 4.0-6.5 2.3-1.7 5.1-2.5 7.6-3.8-1.5-5.2-2.0-10.8-4.3-15.9-1.8-4.7-2.8-9.7-3.1-14.8.64-5.4.87-10.9.53-16.4-2.5 2.1-5.1 4.3-6.6 7.3-.42 1.0-1.6 1.2-2.4 1.8l-2.3 2.4c.19 4.8.67 9.6 3.3 13.8-.13 2.8.36 5.5 1.5 8.1 1.9 3.9.58 8.5 1.8 12.6.36 1.8 1.6 3.7.25 5.5-1.6-3.5-2.7-7.3-2.8-11.3-.01-4.2-2.3-7.9-2.6-12.0-.2-4.2-3.6-7.2-4.6-11.2.9-2.3 1.0-5.0 2.4-7.2 2.6-2.5 4.2-5.8 7.0-8.2 1.4-1.2 3.1-2.1 4.5-3.5-.8-5.8-1.1-11.8.37-17.6-1.7-7.0-3.0-16.1 2.9-21.7.77-1.7 1.4-3.6 2-5.4.38-2.4 2.7-3.7 3.8-5.9l-2.2-.95c.23-.39.6-1.1.92-1.5-.98-3.1-1.9-6.2-2.6-9.3.34-5.9-.42-13.1 4.6-17.4m-1.4 6.8c-1.7 4.0-1.3 8.5-.65 12.7 1.7 6.2 4.8 12.2 9.9 16.4 3.8 2.1 9.7 2.3 12.3-1.8 4.6-4.9 3.3-12.1 3.4-18.3.91 1.1 1.8 2.3 2.7 3.4-.03 4.9-1.9 9.4-3.0 14.2-.58 2.2-2.8 3.3-4.8 4.0 2.9 1.7 6.5 1.3 9.4 3.0 2.3 1.5 4.4 3.5 6.2 5.6.5 1.5.51 3.1.61 4.7-2.3-5.7-7.8-10.6-14.2-10.4-2 .9-4 1.9-6.2 1.7.66-.34 1.3-.67 1.9-1 .71-.76 2.1-2.2 2.8-3.0-6.9 4.0-16.0-.39-18.9-7.4-.52.4-1.0.94-1.5 1.4-1.0 2.8-2.0 5.7-2.8 8.7-2.6 2.8-5.0 6.2-4.6 10.3-.84 5.1 1.7 9.8 3.3 14.5-.55.2-1.6.62-2.2.8-1 5.7-.85 11.6.65 17.2.58-.31 1.7-.92 2.3-1.2-.08 4.9-2.1 9.6-2.4 14.6 1.3 6.6 1.8 13.5 4.3 19.9 1.1 4.0 3.1 7.8 3.1 12.1.57.6 1.1 1.3 1.7 2.0 5.2 2.5 6.3 8.5 8.7 13.2.06 1.4.1 2.8.2 4.2 2.4-1.0 4.6-2.7 6.6-4.5-.14-1.3-.28-2.7-.4-4.1-3.0-2.3-5.5-5.3-7.5-8.5-1.6-5.9-2.0-12.2.02-18.1 1.5-3.8.6-8.0-.65-11.8-.48-3.2-.27-6.5-.84-9.8-1.3 1.4-2.7 2.9-3.8 4.6.71 1.3 1.3 2.8 1.6 4.3-1.6-.65-2.9-1.8-3.3-3.6-1.0-3.3-3.9-6.0-3.6-9.7.43-4.3-1.6-8.3-2.3-12.4 3.0 2.3 3.9 6.2 4.5 9.8-1.7 3.4.85 6.9 2.2 9.9 7.1-6.2 4.5-16.5 6.3-24.8.94-3.3-1.4-6.1-2.6-9.1-1.9 1.3-3.8 2.9-5.9 4.1 1.3-2.6 3.7-4.3 6.1-5.9 3.1-2.6 4.8-6.4 5.7-10.3.67-1.0 1.3-2.1 1.8-3.2.55 1.0 1.1 2.0 1.3 3.1-.75-.07-1.4-.16-2.2-.2 1.2 4.8-1.8 9.9-6.1 12.1 2.9 2.4 4.4 5.9 4.2 9.7.65-1.1 1.2-2.2 1.9-3.3.69.2 2.0.82 2.7 1.0-1.5-2.4-3.4-4.6-4.9-7.0 6.3.45 12.8-.74 18.3-3.9 1.4-1.3 1.7-4.0 4.2-3.8-1.2 4.8-6.1 6.6-9.9 9.0-2.6 1.4-5.7.73-8.6.83 1.5 1.6 2.2 3.7 2.7 5.9 5.2 3.0 11.1.33 16.7.18 3.6-.53 7.5.61 10.8-1.4 3.6-1.9 7.4-3.6 10.8-5.9 1.8-6.9-1-13.7-1.0-20.6.83.6 1.6 1.2 2.4 1.9.7 5.6 2.7 11.6.49 17.1.94-.52 1.8-1.0 2.8-1.5.9 1.6 1.6 3.4 2.4 5.2 3.3-.05 5.4 2.3 6.7 5.1.97-2.1 1.9-4.4 1.9-6.9-.64-7.4-2.9-14.7-2.8-22.2-3.8-.61-7.4-2.2-10.9-3.7-.29 1.9-.53 3.9-.71 5.9-.8-1.1-2.4-2.0-2.0-3.7.29-2.6-.95-4.8-2.3-6.9-1.4 1.7-1.5 4.1-2.3 6.1-1.8 1.9-4.1 3.5-5.7 5.7-1.8 3.0-5.6 4.2-9 3.9 1.7-2.6 5.2-3.0 7.2-5.3 3.9-3.5 5.6-8.6 7.7-13.3-.68-.68-2.0-2.0-2.7-2.7 3.4-1 4.9 2.4 6.5 4.6 2.4 1.5 4.6 3.6 7.2 5.0 4.0 1.7 8.7 2.0 12.8.18-1.3 1.8-3.0 3.4-5.2 4.3 1.0 2.5 1.7 5.2 1.4 7.9 1.1 4.0 1.5 8.2 2.7 12.2.98 5.0-2.6 9.0-4.6 13.3-2.9.6-5.7 1.5-8.4 2.6-.82 2.0-1.7 4.0-2.5 6.0-.38-.38-.74-.78-1.0-1.1.65-2 1.2-4.0 2.1-5.9 3.1-1.3 6.3-2.5 9.5-3.7-1.0-1.4-2.2-2.9-3.4-4.2-3.6.02-4.5-3.5-6.4-5.9-2.4 3.0-6.2 4.0-9.3 6.3-2.3 1.7-5.0 3.5-8.1 3.4-5.0.07-10.1.01-15.1.99-4.3 1.1-8.6-.87-12.8-1.9-.87.7-1.7 1.3-2.6 2.0-.22 4.8-.46 9.6-1.2 14.4 2.8 1.7 4.8 4.4 7.5 6.3 1.1.75 1.1 2.3 1.7 3.5 3.5-2.0 6.2-5.7 10.5-6.4 3.8-.68 7.8-2.5 11.7-1.0 3.3 1.2 6.9 2.1 10.2 3.4.73-3.2 2.0-7.0 5.6-7.9-1.8 3.2-4.7 5.9-4.4 9.9 2.2.61 4.5.69 6.8.63-.33-4.3-2.2-10.1 1.9-13.3-.12 2.6-.97 5.3-.11 8.0.63 1.7.08 3.5-.47 5.1 2.0.89 4.1 1.8 6.2 2.4 5.3-2.4 5.5-9.9 10.5-12.8-.21.6-.64 1.9-.85 2.5-3.1 4.5-4.6 10.6-10.2 12.9.9 1.0 2.0 2.1 2.4 3.5 2.0 6.6-1.0 13.3-2.2 19.8.43 8.8 5.8 17.3 3.1 26.2-.35 2.4.72 4.8 1.0 7.2-.5-.05-1.4-.16-1.9-.21-.24 1.5-.58 3.0-.85 4.5-.02 4.5 3.9 7.6 4.3 12.1.07 1.2.17 2.4.28 3.7 1.6 1.7 3.3 3.3 5.1 4.9 2.6-.08 5.3-.38 7.9-.9 1.3-2.4 3.3-4.8 3.6-7.7-.25-2.8-.84-5.9-2.9-8.0-2.2-5.3-3.8-10.9-7.2-15.7.73.1 2.2.3 2.9.41-.38-3.4-.58-6.9-.26-10.4.66-4.1 2.0-8.0 2.3-12.2.67-6.0-.33-12.1-1.4-18.1-1.0-5.5 1.4-11.1.03-16.7-.58-3.3-1.1-8.2-5.5-8.6.88-1.1 1.7-2.1 2.6-3.2.06-1.6.12-3.3.17-4.9-.58.1-1.7.4-2.3.54l-.6-.35c-1.3-.95-2.7-2.0-3.1-3.7 1.5.54 2.9 1.5 3.9 2.7 1.1-.28 2.3-.65 2.8-1.7 1.4-4.4 3.1-8.9 2.9-13.6.55-6.3-.66-12.8.82-19.1 1.1-3.1-2.5-4.3-3.5-6.7-1.4-3.0-3.9-5.3-5.5-8.2-2.0-4.9-6.3-8.8-11.2-10.8-4.2-2.6-7.0-7.3-12.0-8.8-4.6-2.8-10.2-2.0-15.1-.37-4.3.19-8.7.92-12.5 3.1 1.8 2.9 3.6 5.9 4.8 9.2-5.8-1.8-6.5-9.0-9.5-13.5-2.0-3.7-6.2-6.1-10.5-6-5.0.73-10.7 3.4-11.7 8.9m-6.0 126.5c-2.8 1.1-3.1 4.3-4.3 6.7.91 3.1 1.0 6.6 3.0 9.3 1.8 2.9 4.4 5.1 7.2 7.0 2.4 1 4.8-.83 6.9-1.8 2.8-.96 2.4-4.4 4.2-6.4-.73-5.0-3.1-9.9-7.0-13.3-2.9-1.9-6.8-3.2-10.1-1.5m-5.8 29.3c-2.1 4.1-5.6 7.3-7.8 11.3 1.3 1.3 2.5 2.9 3.1 4.7 3.7.84 6.9-1.4 10.1-2.8 1.4-1.1 1.9-3.3 3.6-4.2 4.6-3.1 11.1-4.4 13.5-10.1-.32-1.5-.98-4.5-1.3-6.1l-1.1 2.9c.31-.84.9-2.5 1.2-3.3-2.4 2.2-5.4 3.9-8.7 4.2-3.0-.25-4.7-3.2-7.0-4.8-1.6 2.8-4.0 5.2-5.5 8.2z"/><path d="M87.4 58.0c.15-2.2 1.7-4 3.0-5.7.22.3.68 1 .9 1.3-1.8 2.2-1.5 4.8-1.3 7.4-1.9.73-2.6-1.6-2.6-3.0zM101.9 63.8c2.3-.75 4.5-1.9 6.8-2.8l-.28 2.1c-2.4.99-4.7 2.3-7.3 2.8-3.3-.32-6.6-1.2-9.6-2.6 3.5-.26 6.9.67 10.4.47zM80.0 76.0c-1.5-5.4 2.0-12.1 7.3-14.2-2.8 3.3-5.0 7.0-6.8 11.0.24.8.71 2.4.95 3.3-.87.9-1.7 1.9-2.6 2.9.39-1.0.8-2.0 1.2-3.1zM47.6 85.9c2.6.17 5.2.89 7.7 1.9.5.5.99 1.1 1.4 1.7.5-1.4 1.4-2.8 2.6-3.8-.07 1.1-.16 2.2-.27 3.3-1.1 1.1-2.2 2.3-3.4 3.5-.46-.11-1.3-.32-1.8-.43l1.7-1.3c-2.4-2.0-5.2-3.5-8.1-4.9zM93.1 90.4c4.3-2.9 8.6 1.1 12.4 3.1-.04 1.9-.12 3.7-.25 5.6-.82-1.7-1.5-3.5-2.3-5.3-3.2-.37-5.5-3.6-9.0-2.6-.2-.21-.58-.62-.78-.83zM95.9 108.2c-.67-5.4-4.5-10.0-5.1-15.4 1.4 1.7 2.6 3.7 3.6 5.8.4.3 1.1 1 1.5 1.3.02 3.0 1.9 5.5 2.1 8.4l-1.3.43-.91-.62zM91.7 114.8c5.4-1.7 10.8-3.2 16.4-4.1-2.8 2.0-5.5 4.3-8.4 6.3-.29-.54-.89-1.6-1.1-2.1-3.3 1.1-6.7 1.9-10.1 2.9-1.5-.36-3.1-.62-4.7-.86l-.2-1.6c2.7.05 5.6.5 8.2-.49zM66.7 116.0c4.0-2.0 8.5.02 12.2 2.0 1.1.4 1.6 1.5 2.1 2.4-4.6-2.1-9.2-4.1-14.3-4.5zM116.5 121.0c3.5-.44 5.5 3.7 9.1 2.8.1.3.32 1.0.42 1.4-1.4.16-2.9.26-4.4.28-1.6-1.5-3.9-2.5-5.1-4.5zM125.6 137.3c.83.0 1.6.15 2.4.23.7 2.9 1.3 6.0-.18 8.8-1.4-2.8-1.0-6.1-2.3-9.0zM36.8 145.9c.04-2.0.27-4.1 1.0-6.1 1.8 2.9.89 6.6 2.4 9.8-1.0-1.2-2.2-2.5-3.4-3.6zM130.3 146.7c2.9 4.1 2.5 9.4 2.5 14.2-.16 5.4.33 11.0-1.9 16.1.96-5.7-.12-11.4.49-17.2-.01-3.6-1.2-7.0-1.9-10.5.28-.88.5-1.7.85-2.6zM64.8 172.0c-.29-5.8 5.5-9.9 11.0-9.1 3.3 2.1 6.3 5.0 8.4 8.5-.41.9-.85 1.9-1.3 2.9.46-5.1-4.4-7.6-8.3-9.4-1.9.54-4.0.83-5.7 1.8-1.5 1.6-2.3 3.8-4.1 5.2z"/><path d="M70.6 167.9c3.2.96 6.7 3.3 6.9 7.0.17 2.9.91 6.2-.92 8.8-.4-3.2.26-6.8-1.4-9.8-1.4-2.0-3.1-3.9-4.6-5.9zM44.9 177.6l2.4-.36c2.2 1.7 5.0 3.2 5.7 6.1.52 2.8 1.1 5.9-.38 8.5.26-6.0-4.0-10.3-7.8-14.3zM124.4 192.9c.52-2.7 1.8-5.2 3.7-7.3 1.6 1.1 3.3 2.5 3.0 4.8a53.9 53.9 0 01-3.1-1.9c-.87 1.7-1.8 3.5-3.6 4.4z"/></svg>
